<svg width="46" height="61" fill="none" xmlns="http://www.w3.org/2000/svg">
    <mask id="a" fill="#fff">
        <path fill-rule="evenodd" clip-rule="evenodd" d="M36.899 39.868c4.98-4.132 8.15-10.367 8.15-17.343C45.05 10.085 34.966 0 22.526 0 10.085 0 0 10.085 0 22.525c0 6.972 3.167 13.204 8.142 17.335l5.008 5.21a44.446 44.446 0 0 1 9.622 15.326 42.517 42.517 0 0 1 9.244-15.336l4.883-5.192Z"></path>
    </mask>
    <path fill-rule="evenodd" clip-rule="evenodd" d="M36.899 39.868c4.98-4.132 8.15-10.367 8.15-17.343C45.05 10.085 34.966 0 22.526 0 10.085 0 0 10.085 0 22.525c0 6.972 3.167 13.204 8.142 17.335l5.008 5.21a44.446 44.446 0 0 1 9.622 15.326 42.517 42.517 0 0 1 9.244-15.336l4.883-5.192Z" fill="#fff"></path>
    <path d="m36.899 39.868-1.916-2.31-.143.12-.127.135 2.186 2.055ZM8.142 39.86l2.163-2.079-.117-.12-.13-.108-1.916 2.307Zm5.008 5.21-2.163 2.08 2.163-2.08Zm9.622 15.326-2.812 1.045 2.925 7.875 2.725-7.947-2.838-.973Zm9.244-15.336 2.186 2.055-2.186-2.055ZM42.05 22.525c0 6.046-2.745 11.448-7.067 15.034l3.832 4.617C44.45 37.5 48.05 30.431 48.05 22.525h-6ZM22.525 3C33.308 3 42.05 11.742 42.05 22.525h6C48.05 8.428 36.621-3 22.525-3v6ZM3 22.525C3 11.742 11.742 3 22.525 3v-6C8.428-3-3 8.428-3 22.525h6Zm7.059 15.028C5.74 33.967 3 28.567 3 22.525h-6C-3 30.426.594 37.49 6.225 42.168l3.834-4.615Zm-4.08 4.386 5.008 5.21 4.326-4.158-5.008-5.21-4.326 4.158Zm5.008 5.21a41.446 41.446 0 0 1 8.973 14.292l5.625-2.09a47.445 47.445 0 0 0-10.272-16.36l-4.326 4.158ZM25.61 61.37a39.518 39.518 0 0 1 8.592-14.254l-4.371-4.11a45.519 45.519 0 0 0-9.897 16.418l5.676 1.946Zm8.592-14.254 4.883-5.192-4.372-4.11-4.882 5.192 4.37 4.11Z" fill="darkgreen" mask="url('#a')"></path>
    <g transform="translate(7, 6) scale(1.3)">
        <path fill="darkgreen" d="M5.32943 3.27158C6.56252 2.8332 7.9923 3.10749 8.97927 4.09446C9.96652 5.08171 10.2407 6.51202 9.80178 7.74535L20.6465 18.5902L18.5252 20.7115L7.67936 9.86709C6.44627 10.3055 5.01649 10.0312 4.02952 9.04421C3.04227 8.05696 2.7681 6.62665 3.20701 5.39332L5.44373 7.63C6.02952 8.21578 6.97927 8.21578 7.56505 7.63C8.15084 7.04421 8.15084 6.09446 7.56505 5.50868L5.32943 3.27158ZM15.6968 5.15512L18.8788 3.38736L20.293 4.80157L18.5252 7.98355L16.7574 8.3371L14.6361 10.4584L13.2219 9.04421L15.3432 6.92289L15.6968 5.15512ZM8.62572 12.9333L10.747 15.0546L5.79729 20.0044C5.2115 20.5902 4.26175 20.5902 3.67597 20.0044C3.12464 19.453 3.09221 18.5793 3.57867 17.99L3.67597 17.883L8.62572 12.9333Z"></path>
    </g>
</svg>
