<svg width="46" height="61" fill="none" xmlns="http://www.w3.org/2000/svg">
    <mask id="a" fill="#fff">
        <path fill-rule="evenodd" clip-rule="evenodd" d="M36.899 39.868c4.98-4.132 8.15-10.367 8.15-17.343C45.05 10.085 34.966 0 22.526 0 10.085 0 0 10.085 0 22.525c0 6.972 3.167 13.204 8.142 17.335l5.008 5.21a44.446 44.446 0 0 1 9.622 15.326 42.517 42.517 0 0 1 9.244-15.336l4.883-5.192Z"></path>
    </mask>
    <path fill-rule="evenodd" clip-rule="evenodd" d="M36.899 39.868c4.98-4.132 8.15-10.367 8.15-17.343C45.05 10.085 34.966 0 22.526 0 10.085 0 0 10.085 0 22.525c0 6.972 3.167 13.204 8.142 17.335l5.008 5.21a44.446 44.446 0 0 1 9.622 15.326 42.517 42.517 0 0 1 9.244-15.336l4.883-5.192Z" fill="#fff"></path>
    <path d="m36.899 39.868-1.916-2.31-.143.12-.127.135 2.186 2.055ZM8.142 39.86l2.163-2.079-.117-.12-.13-.108-1.916 2.307Zm5.008 5.21-2.163 2.08 2.163-2.08Zm9.622 15.326-2.812 1.045 2.925 7.875 2.725-7.947-2.838-.973Zm9.244-15.336 2.186 2.055-2.186-2.055ZM42.05 22.525c0 6.046-2.745 11.448-7.067 15.034l3.832 4.617C44.45 37.5 48.05 30.431 48.05 22.525h-6ZM22.525 3C33.308 3 42.05 11.742 42.05 22.525h6C48.05 8.428 36.621-3 22.525-3v6ZM3 22.525C3 11.742 11.742 3 22.525 3v-6C8.428-3-3 8.428-3 22.525h6Zm7.059 15.028C5.74 33.967 3 28.567 3 22.525h-6C-3 30.426.594 37.49 6.225 42.168l3.834-4.615Zm-4.08 4.386 5.008 5.21 4.326-4.158-5.008-5.21-4.326 4.158Zm5.008 5.21a41.446 41.446 0 0 1 8.973 14.292l5.625-2.09a47.445 47.445 0 0 0-10.272-16.36l-4.326 4.158ZM25.61 61.37a39.518 39.518 0 0 1 8.592-14.254l-4.371-4.11a45.519 45.519 0 0 0-9.897 16.418l5.676 1.946Zm8.592-14.254 4.883-5.192-4.372-4.11-4.882 5.192 4.37 4.11Z" fill="brown" mask="url('#a')"></path>
    <g transform="translate(7, 6) scale(1.3)">
        <path fill="brown" d="M12.0049 22.0027C6.48204 22.0027 2.00488 17.5256 2.00488 12.0027C2.00488 6.4799 6.48204 2.00275 12.0049 2.00275C17.5277 2.00275 22.0049 6.4799 22.0049 12.0027C22.0049 17.5256 17.5277 22.0027 12.0049 22.0027ZM12.0049 20.0027C16.4232 20.0027 20.0049 16.421 20.0049 12.0027C20.0049 7.58447 16.4232 4.00275 12.0049 4.00275C7.5866 4.00275 4.00488 7.58447 4.00488 12.0027C4.00488 16.421 7.5866 20.0027 12.0049 20.0027ZM10.0549 11.0027H15.0049V13.0027H10.0549C10.2865 14.1439 11.2954 15.0027 12.5049 15.0027C13.1201 15.0027 13.6833 14.7806 14.1188 14.412L15.8198 15.546C14.9973 16.4415 13.8166 17.0027 12.5049 17.0027C10.1886 17.0027 8.28107 15.2527 8.03235 13.0027H7.00488V11.0027H8.03235C8.28107 8.75277 10.1886 7.00275 12.5049 7.00275C13.8166 7.00275 14.9973 7.56402 15.8198 8.45951L14.1189 9.59351C13.6834 9.22496 13.1201 9.00275 12.5049 9.00275C11.2954 9.00275 10.2865 9.86163 10.0549 11.0027Z"></path>
    </g>
</svg>
